<svg xmlns="http://www.w3.org/2000/svg" version="1.1" xlink="http://www.w3.org/1999/xlink" xmlns:svgjs="http://svgjs.com/svgjs" width="245.01143645949267" height="147"><defs id="SvgjsDefs326739"/><g id="SvgjsG326740" transform="scale(0.5303277845443565)" opacity="1"><g id="SvgjsG326741" class="VohuwCPwD" transform="translate(111.76942103060107, -12.323456475275252) scale(4.7659898675411725)" light-content="false" non-strokable="false" fill="#bd10e0"><path d="M19.631 10.817c.037.023.062.057.101.076l14.713 7.131c-.058-.829.289-1.504.824-1.979l-14.603-7.08c-.021-.01-.042-.008-.063-.017-.02.796-.404 1.437-.972 1.869zm-1.566.964a3.048 3.048 0 0 1-2.043.685l5.867 12.592c.49-.535 1.203-.861 1.933-.92l-5.757-12.357zm24.394 25.981a2.915 2.915 0 0 1 1.625.008c.188.015.375.046.557.099l-1.827-12.162c-.647.344-1.425.453-2.124.267l1.769 11.788zm-17.17-8.818L40.127 40.35c.095-.318.258-.594.461-.839.119-.401.333-.75.621-1.03L26.578 27.234c-.144.763-.644 1.353-1.289 1.71zm-12.855-2.512c.176.61.143 1.158-.029 1.627l9.096-.255c-.046-.109-.097-.21-.133-.331-.201-.695-.124-1.302.115-1.808l-9.254.257c.081.156.152.324.205.51zm-2.493-3.569l5.505-10.491c-.696-.187-1.303-.671-1.629-1.5L8 21.953c.733.005 1.45.288 1.941.91zM9.9 31.921l12.594 9.319c.178-.749.697-1.323 1.355-1.66L11.43 30.392c-.251.719-.836 1.247-1.53 1.529zm17.776 9.185c.23.797.103 1.486-.23 2.029l12.649.205a2.775 2.775 0 0 1-.249-.599c-.166-.577-.141-1.095.01-1.545l-12.223-.2c.012.039.03.07.043.11z"/><path d="M22.189 6.693a5.693 5.693 0 0 0-7.041-3.884 5.692 5.692 0 0 0-3.884 7.041 5.691 5.691 0 0 0 7.041 3.884 5.691 5.691 0 0 0 3.884-7.041zm26.039 10.929c-1.208-4.182-5.594-6.6-9.774-5.392-4.181 1.208-6.599 5.593-5.391 9.774 1.208 4.18 5.593 6.6 9.774 5.392 4.181-1.208 6.6-5.593 5.391-9.774zm-34.587 7.905c-1.065-3.685-4.93-5.816-8.615-4.751C1.341 21.84-.791 25.705.274 29.39a6.963 6.963 0 0 0 8.614 4.751 6.966 6.966 0 0 0 4.753-8.614zm13.988-.004a3.883 3.883 0 0 0-4.804-2.651 3.884 3.884 0 0 0-2.651 4.804 3.886 3.886 0 0 0 4.804 2.651 3.883 3.883 0 0 0 2.651-4.804zm1.423 15.045a4.286 4.286 0 0 0-5.301-2.924 4.286 4.286 0 0 0-2.924 5.301 4.283 4.283 0 0 0 5.302 2.925 4.285 4.285 0 0 0 2.923-5.302zm20.719-.589a5.829 5.829 0 0 0-7.206-3.976 5.826 5.826 0 0 0-3.978 7.207 5.828 5.828 0 0 0 7.208 3.974 5.826 5.826 0 0 0 3.976-7.205z"/></g><g id="SvgjsG326742" class="text" transform="translate(230.97, 264.8698263402679) scale(1)" light-content="false" fill="#000000"><path d="M-211.72 0.74C-208.38 0.74 -205.43 0.09 -202.87 -1.21C-200.31 -2.51 -198.31 -4.26 -196.86 -6.47C-195.42 -8.68 -194.34 -11.06 -193.61 -13.62C-192.89 -16.18 -192.53 -18.86 -192.53 -21.66C-192.53 -24.47 -192.89 -27.15 -193.61 -29.71C-194.34 -32.27 -195.42 -34.65 -196.86 -36.86C-198.31 -39.07 -200.31 -40.82 -202.87 -42.12C-205.43 -43.42 -208.38 -44.07 -211.72 -44.07C-214.44 -44.07 -216.91 -43.64 -219.12 -42.77C-221.32 -41.9 -223.15 -40.74 -224.59 -39.27C-226.04 -37.81 -227.24 -36.11 -228.21 -34.17C-229.18 -32.23 -229.89 -30.22 -230.32 -28.13C-230.75 -26.05 -230.97 -23.89 -230.97 -21.66C-230.97 -19.44 -230.75 -17.28 -230.32 -15.2C-229.89 -13.11 -229.18 -11.1 -228.21 -9.16C-227.24 -7.22 -226.04 -5.52 -224.59 -4.05C-223.15 -2.59 -221.32 -1.42 -219.12 -0.56C-216.91 0.31 -214.44 0.74 -211.72 0.74ZM-211.72 -8.36C-213.41 -8.36 -214.9 -8.76 -216.18 -9.56C-217.45 -10.37 -218.45 -11.44 -219.15 -12.78C-219.85 -14.12 -220.36 -15.54 -220.69 -17.02C-221.02 -18.51 -221.19 -20.05 -221.19 -21.66C-221.19 -23.81 -220.92 -25.84 -220.38 -27.76C-219.85 -29.68 -218.83 -31.37 -217.32 -32.84C-215.81 -34.3 -213.95 -35.03 -211.72 -35.03C-209.49 -35.03 -207.63 -34.32 -206.15 -32.9C-204.66 -31.47 -203.65 -29.8 -203.12 -27.88C-202.58 -25.97 -202.31 -23.89 -202.31 -21.66C-202.31 -19.56 -202.6 -17.55 -203.18 -15.63C-203.75 -13.71 -204.79 -12.02 -206.27 -10.55C-207.76 -9.09 -209.57 -8.36 -211.72 -8.36Z M-159.11 0L-150.13 0L-150.13 -20.55C-150.13 -24.72 -151.22 -27.73 -153.41 -29.59C-155.6 -31.44 -158.16 -32.37 -161.09 -32.37C-164.8 -32.37 -167.67 -31.15 -169.69 -28.72L-169.69 -31.63L-178.67 -31.63L-178.67 0L-169.69 0L-169.69 -16.59C-169.69 -19.02 -169.25 -20.82 -168.36 -21.97C-167.47 -23.13 -166.06 -23.71 -164.12 -23.71C-162.3 -23.71 -161.02 -23.14 -160.25 -22C-159.49 -20.87 -159.11 -19.02 -159.11 -16.46Z M-125.43 0.74C-122.59 0.74 -120.19 0.27 -118.25 -0.68L-117.26 -8.23C-119.08 -7.41 -120.9 -6.99 -122.71 -6.99C-123.21 -6.99 -123.63 -7.15 -123.98 -7.46C-124.33 -7.77 -124.51 -8.21 -124.51 -8.79L-124.51 -23.77L-117.64 -23.77L-117.64 -31.63L-124.51 -31.63L-124.51 -44.69L-133.42 -40.42L-133.42 -31.63L-137.75 -31.63L-137.75 -23.77L-133.42 -23.77L-133.42 -7.92C-133.42 -2.15 -130.76 0.74 -125.43 0.74Z M-91.02 0.74C-86.52 0.74 -82.97 -0.72 -80.37 -3.65C-77.77 -6.58 -76.47 -10.63 -76.47 -15.78C-76.47 -20.9 -77.78 -24.94 -80.4 -27.92C-83.02 -30.89 -86.56 -32.37 -91.02 -32.37C-95.52 -32.37 -99.09 -30.89 -101.73 -27.92C-104.37 -24.94 -105.69 -20.9 -105.69 -15.78C-105.69 -10.63 -104.38 -6.58 -101.76 -3.65C-99.14 -0.72 -95.56 0.74 -91.02 0.74ZM-91.02 -7.92C-92.75 -7.92 -94.14 -8.61 -95.17 -10C-96.2 -11.38 -96.71 -13.31 -96.71 -15.78C-96.71 -18.26 -96.2 -20.2 -95.17 -21.6C-94.14 -23.01 -92.75 -23.71 -91.02 -23.71C-89.25 -23.71 -87.87 -23.01 -86.9 -21.6C-85.93 -20.2 -85.45 -18.26 -85.45 -15.78C-85.45 -13.31 -85.93 -11.38 -86.9 -10C-87.87 -8.61 -89.25 -7.92 -91.02 -7.92Z M-45.96 0.74C-41.17 0.74 -37.26 -0.78 -34.23 -3.84C-31.2 -6.89 -29.68 -11.12 -29.68 -16.53L-29.68 -23.34L-46.39 -23.34L-46.39 -14.36L-39.34 -14.36L-39.34 -14.05C-39.34 -12.52 -40 -11.18 -41.32 -10.03C-42.64 -8.87 -44.18 -8.29 -45.96 -8.29C-49.09 -8.29 -51.44 -9.58 -52.98 -12.16C-54.53 -14.74 -55.31 -17.91 -55.31 -21.66C-55.31 -23.85 -55.05 -25.89 -54.53 -27.79C-54.02 -29.69 -53.01 -31.37 -51.53 -32.84C-50.04 -34.3 -48.19 -35.03 -45.96 -35.03C-43.11 -35.03 -40.53 -33.2 -38.22 -29.52L-29.99 -34.17C-31.89 -37.22 -34.06 -39.63 -36.52 -41.41C-38.97 -43.18 -42.12 -44.07 -45.96 -44.07C-49.09 -44.07 -51.92 -43.4 -54.44 -42.06C-56.96 -40.72 -58.97 -38.95 -60.47 -36.77C-61.98 -34.58 -63.12 -32.2 -63.91 -29.62C-64.69 -27.04 -65.08 -24.39 -65.08 -21.66C-65.08 -18.73 -64.7 -15.97 -63.94 -13.37C-63.18 -10.77 -62.05 -8.4 -60.57 -6.25C-59.08 -4.11 -57.08 -2.4 -54.56 -1.15C-52.05 0.11 -49.18 0.74 -45.96 0.74Z M-16.31 0L-7.33 0L-7.33 -17.15C-7.33 -21.52 -5.52 -23.71 -1.89 -23.71C0.13 -23.71 2.01 -22.98 3.74 -21.54L4.92 -29.71C3.23 -31.48 1.15 -32.37 -1.33 -32.37C-2.78 -32.37 -4.03 -31.98 -5.11 -31.2C-6.18 -30.41 -6.92 -29.61 -7.33 -28.78L-7.33 -31.63L-16.31 -31.63Z M34.07 0L42.99 0L42.99 -19.99C42.99 -28.25 38.51 -32.37 29.56 -32.37C24.4 -32.37 19.88 -31.05 16 -28.41L18.79 -21.54C22.13 -23.77 25.51 -24.88 28.94 -24.88C30.55 -24.88 31.8 -24.5 32.71 -23.74C33.62 -22.97 34.07 -21.87 34.07 -20.43L34.07 -18.69C32.42 -19.44 30.11 -19.81 27.14 -19.81C23.72 -19.81 20.73 -18.93 18.17 -17.18C15.61 -15.42 14.33 -12.92 14.33 -9.66C14.33 -6.31 15.43 -3.74 17.64 -1.95C19.85 -0.15 22.71 0.74 26.21 0.74C29.56 0.74 32.18 -0.29 34.07 -2.35ZM27.95 -6.81C24.73 -6.81 23.12 -7.74 23.12 -9.59C23.12 -11.62 24.98 -12.63 28.69 -12.63C30.63 -12.63 32.42 -12.38 34.07 -11.88L34.07 -9.04C32.22 -7.55 30.17 -6.81 27.95 -6.81Z M73.07 0.74C76.91 0.74 80.06 -0.74 82.54 -3.71C85.02 -6.68 86.25 -10.71 86.25 -15.78C86.25 -21.11 85.07 -25.2 82.69 -28.07C80.32 -30.94 77.15 -32.37 73.19 -32.37C70.35 -32.37 68.22 -31.4 66.82 -29.46L66.82 -31.63L57.84 -31.63L57.84 12.32L66.82 8.29L66.82 -2.04C68.26 -0.19 70.35 0.74 73.07 0.74ZM71.65 -7.92C70.41 -7.92 69.36 -8.13 68.49 -8.54C67.62 -8.95 67.07 -9.43 66.82 -9.97L66.82 -21.79C68.01 -23.07 69.62 -23.71 71.65 -23.71C75.4 -23.71 77.28 -21.07 77.28 -15.78C77.28 -13.31 76.78 -11.38 75.79 -10C74.8 -8.61 73.42 -7.92 71.65 -7.92Z M100.18 0L109.16 0L109.16 -17.08C109.16 -21.5 111.01 -23.71 114.73 -23.71C116.54 -23.71 117.83 -23.17 118.59 -22.1C119.36 -21.02 119.74 -19.31 119.74 -16.96L119.74 0L128.72 0L128.72 -20.55C128.72 -24.72 127.62 -27.73 125.43 -29.59C123.25 -31.44 120.69 -32.37 117.76 -32.37C114.05 -32.37 111.18 -31.15 109.16 -28.72L109.16 -44.69L100.18 -40.54Z M143.88 -43.33L143.88 0L159.6 0C162.66 0 165.42 -0.44 167.9 -1.33C170.37 -2.22 172.41 -3.37 174.02 -4.8C175.63 -6.22 176.97 -7.89 178.05 -9.81C179.12 -11.73 179.88 -13.67 180.34 -15.63C180.79 -17.59 181.02 -19.6 181.02 -21.66C181.02 -24.47 180.62 -27.13 179.81 -29.65C179.01 -32.17 177.79 -34.47 176.16 -36.55C174.53 -38.63 172.31 -40.28 169.51 -41.5C166.7 -42.72 163.48 -43.33 159.85 -43.33ZM160.59 -8.98L153.29 -8.98L153.29 -34.41L161.27 -34.41C164.49 -34.41 166.96 -33.14 168.67 -30.58C170.38 -28.02 171.24 -25.05 171.24 -21.66C171.24 -18.28 170.35 -15.32 168.58 -12.78C166.8 -10.24 164.14 -8.98 160.59 -8.98Z M194.88 -43.33L194.88 0L216.11 0C221.19 0 224.94 -1.27 227.38 -3.81C229.81 -6.34 231.03 -9.41 231.03 -13C231.03 -14.98 230.5 -16.88 229.45 -18.69C228.4 -20.51 226.82 -21.81 224.72 -22.59C227.98 -24.12 229.61 -27.11 229.61 -31.57C229.61 -34.91 228.46 -37.71 226.17 -39.95C223.88 -42.2 220.26 -43.33 215.31 -43.33ZM214.38 -26.43L204.29 -26.43L204.29 -34.54L215.37 -34.54C218.47 -34.54 220.01 -33.2 220.01 -30.52C220.01 -27.79 218.14 -26.43 214.38 -26.43ZM216.55 -8.85L204.29 -8.85L204.29 -17.95L214.88 -17.95C219.29 -17.95 221.5 -16.36 221.5 -13.18C221.5 -12.03 221.11 -11.02 220.32 -10.15C219.54 -9.28 218.28 -8.85 216.55 -8.85Z"/></g></g></svg>